<mxfile host="Electron" agent="Mozilla/5.0 (X11; Linux x86_64) AppleWebKit/537.36 (KHTML, like Gecko) draw.io/26.0.16 Chrome/132.0.6834.196 Electron/34.2.0 Safari/537.36" version="26.0.16">
  <diagram name="Page-1" id="qHh_DEwMQ2zBX-yBm9PX">
    <mxGraphModel dx="2261" dy="839" grid="1" gridSize="10" guides="1" tooltips="1" connect="1" arrows="1" fold="1" page="1" pageScale="1" pageWidth="827" pageHeight="1169" math="0" shadow="0">
      <root>
        <mxCell id="0" />
        <mxCell id="1" parent="0" />
        <mxCell id="Pzict6rE5WbOi0MzwCxy-28" value="" style="rounded=0;whiteSpace=wrap;html=1;fillColor=none;" parent="1" vertex="1">
          <mxGeometry x="40" y="530" width="120" height="200" as="geometry" />
        </mxCell>
        <mxCell id="Pzict6rE5WbOi0MzwCxy-6" value="" style="rounded=0;whiteSpace=wrap;html=1;" parent="1" vertex="1">
          <mxGeometry x="-20" y="70" width="900" height="750" as="geometry" />
        </mxCell>
        <mxCell id="Pzict6rE5WbOi0MzwCxy-29" value="" style="rounded=0;whiteSpace=wrap;html=1;fillColor=#1ba1e2;fontColor=#ffffff;strokeColor=#006EAF;" parent="1" vertex="1">
          <mxGeometry x="220" y="90" width="650" height="421.88" as="geometry" />
        </mxCell>
        <mxCell id="OcH-Gw6TVEVZWwgZwP5O-20" value="" style="rounded=0;whiteSpace=wrap;html=1;fillColor=#fa6800;strokeColor=#C73500;fontColor=#000000;" parent="1" vertex="1">
          <mxGeometry x="560" y="240" width="280" height="260" as="geometry" />
        </mxCell>
        <mxCell id="G7SNNJJ8i718TlqXlyuN-13" value="" style="rounded=0;whiteSpace=wrap;html=1;fillColor=#dae8fc;strokeColor=#6c8ebf;" parent="1" vertex="1">
          <mxGeometry x="230" y="100" width="280" height="290" as="geometry" />
        </mxCell>
        <mxCell id="G7SNNJJ8i718TlqXlyuN-5" value="" style="group" parent="1" vertex="1" connectable="0">
          <mxGeometry x="110" y="600" width="280" height="200" as="geometry" />
        </mxCell>
        <mxCell id="OcH-Gw6TVEVZWwgZwP5O-7" value="" style="rounded=0;whiteSpace=wrap;html=1;" parent="G7SNNJJ8i718TlqXlyuN-5" vertex="1">
          <mxGeometry width="270" height="190.9090909090909" as="geometry" />
        </mxCell>
        <mxCell id="OcH-Gw6TVEVZWwgZwP5O-31" value="EDC" style="rounded=0;whiteSpace=wrap;html=1;strokeColor=none;" parent="G7SNNJJ8i718TlqXlyuN-5" vertex="1">
          <mxGeometry x="10" y="9.09090909090909" width="40" height="27.272727272727273" as="geometry" />
        </mxCell>
        <mxCell id="OcH-Gw6TVEVZWwgZwP5O-15" value="" style="rounded=0;whiteSpace=wrap;html=1;fillColor=#d80073;fontColor=#ffffff;strokeColor=#A50040;" parent="G7SNNJJ8i718TlqXlyuN-5" vertex="1">
          <mxGeometry x="-100" y="-81.81818181818183" width="380" height="281.8181818181818" as="geometry" />
        </mxCell>
        <mxCell id="G7SNNJJ8i718TlqXlyuN-1" value="Identity&lt;div&gt;Provisioning&lt;/div&gt;&lt;div&gt;Plugin&lt;/div&gt;" style="rounded=0;whiteSpace=wrap;html=1;" parent="G7SNNJJ8i718TlqXlyuN-5" vertex="1">
          <mxGeometry x="-20" y="95" width="80" height="50" as="geometry" />
        </mxCell>
        <mxCell id="OcH-Gw6TVEVZWwgZwP5O-8" value="Identity Hub" style="whiteSpace=wrap;html=1;aspect=fixed;" parent="G7SNNJJ8i718TlqXlyuN-5" vertex="1">
          <mxGeometry x="80" y="80" width="80" height="80" as="geometry" />
        </mxCell>
        <mxCell id="G7SNNJJ8i718TlqXlyuN-7" style="edgeStyle=orthogonalEdgeStyle;rounded=0;orthogonalLoop=1;jettySize=auto;html=1;exitX=1;exitY=0.5;exitDx=0;exitDy=0;entryX=0;entryY=0.5;entryDx=0;entryDy=0;" parent="G7SNNJJ8i718TlqXlyuN-5" source="G7SNNJJ8i718TlqXlyuN-1" target="OcH-Gw6TVEVZWwgZwP5O-8" edge="1">
          <mxGeometry relative="1" as="geometry" />
        </mxCell>
        <mxCell id="OcH-Gw6TVEVZWwgZwP5O-17" value="Onboarding UI" style="whiteSpace=wrap;html=1;aspect=fixed;fillColor=#f0a30a;strokeColor=#BD7000;fontColor=#000000;" parent="G7SNNJJ8i718TlqXlyuN-5" vertex="1">
          <mxGeometry x="-60" y="-60" width="80" height="80" as="geometry" />
        </mxCell>
        <mxCell id="G7SNNJJ8i718TlqXlyuN-6" style="edgeStyle=orthogonalEdgeStyle;rounded=0;orthogonalLoop=1;jettySize=auto;html=1;exitX=0.5;exitY=1;exitDx=0;exitDy=0;" parent="G7SNNJJ8i718TlqXlyuN-5" source="OcH-Gw6TVEVZWwgZwP5O-17" target="G7SNNJJ8i718TlqXlyuN-1" edge="1">
          <mxGeometry relative="1" as="geometry" />
        </mxCell>
        <mxCell id="s0rCqprWcfqDhQxbpzcD-1" value="8. set VC" style="edgeLabel;html=1;align=center;verticalAlign=middle;resizable=0;points=[];" vertex="1" connectable="0" parent="G7SNNJJ8i718TlqXlyuN-6">
          <mxGeometry x="-0.5826" y="-1" relative="1" as="geometry">
            <mxPoint as="offset" />
          </mxGeometry>
        </mxCell>
        <mxCell id="v3vc5Tjy4B6Mg-112-fk-4" style="edgeStyle=orthogonalEdgeStyle;rounded=0;orthogonalLoop=1;jettySize=auto;html=1;exitX=1;exitY=0.5;exitDx=0;exitDy=0;entryX=0.5;entryY=1;entryDx=0;entryDy=0;" parent="1" source="OcH-Gw6TVEVZWwgZwP5O-1" target="Pzict6rE5WbOi0MzwCxy-25" edge="1">
          <mxGeometry relative="1" as="geometry" />
        </mxCell>
        <mxCell id="v3vc5Tjy4B6Mg-112-fk-5" value="3. Create&lt;div&gt;DID / Password&lt;/div&gt;&lt;div&gt;(REST)&lt;/div&gt;" style="edgeLabel;html=1;align=center;verticalAlign=middle;resizable=0;points=[];" parent="v3vc5Tjy4B6Mg-112-fk-4" vertex="1" connectable="0">
          <mxGeometry x="-0.1464" relative="1" as="geometry">
            <mxPoint x="17" y="6" as="offset" />
          </mxGeometry>
        </mxCell>
        <mxCell id="OcH-Gw6TVEVZWwgZwP5O-1" value="Enrolment&lt;div&gt;UI and Backend&lt;/div&gt;" style="whiteSpace=wrap;html=1;aspect=fixed;fillColor=#d5e8d4;strokeColor=#82b366;" parent="1" vertex="1">
          <mxGeometry x="240" y="263.13" width="106.25" height="106.25" as="geometry" />
        </mxCell>
        <mxCell id="OcH-Gw6TVEVZWwgZwP5O-29" style="edgeStyle=orthogonalEdgeStyle;rounded=0;orthogonalLoop=1;jettySize=auto;html=1;entryX=0;entryY=0.5;entryDx=0;entryDy=0;" parent="1" source="OcH-Gw6TVEVZWwgZwP5O-2" target="OcH-Gw6TVEVZWwgZwP5O-1" edge="1">
          <mxGeometry relative="1" as="geometry" />
        </mxCell>
        <mxCell id="Pzict6rE5WbOi0MzwCxy-17" value="1. Submit" style="edgeLabel;html=1;align=center;verticalAlign=middle;resizable=0;points=[];" parent="OcH-Gw6TVEVZWwgZwP5O-29" vertex="1" connectable="0">
          <mxGeometry x="-0.0919" y="-4" relative="1" as="geometry">
            <mxPoint x="-1" y="-12" as="offset" />
          </mxGeometry>
        </mxCell>
        <mxCell id="G7SNNJJ8i718TlqXlyuN-8" style="edgeStyle=orthogonalEdgeStyle;rounded=0;orthogonalLoop=1;jettySize=auto;html=1;entryX=0.5;entryY=0;entryDx=0;entryDy=0;exitX=0;exitY=0.3333333333333333;exitDx=0;exitDy=0;exitPerimeter=0;" parent="1" source="OcH-Gw6TVEVZWwgZwP5O-2" target="OcH-Gw6TVEVZWwgZwP5O-17" edge="1">
          <mxGeometry relative="1" as="geometry">
            <mxPoint x="90" y="300" as="sourcePoint" />
            <Array as="points">
              <mxPoint x="40" y="344" />
              <mxPoint x="40" y="462" />
              <mxPoint x="90" y="462" />
            </Array>
          </mxGeometry>
        </mxCell>
        <mxCell id="Pzict6rE5WbOi0MzwCxy-19" value="4. Initiate" style="edgeLabel;html=1;align=center;verticalAlign=middle;resizable=0;points=[];" parent="G7SNNJJ8i718TlqXlyuN-8" vertex="1" connectable="0">
          <mxGeometry x="-0.0402" y="-1" relative="1" as="geometry">
            <mxPoint x="1" y="-29" as="offset" />
          </mxGeometry>
        </mxCell>
        <mxCell id="OcH-Gw6TVEVZWwgZwP5O-2" value="Member&lt;span style=&quot;background-color: transparent; color: light-dark(rgb(0, 0, 0), rgb(255, 255, 255));&quot;&gt;&#39;s&lt;/span&gt;&lt;div&gt;&lt;span style=&quot;background-color: transparent; color: light-dark(rgb(0, 0, 0), rgb(255, 255, 255));&quot;&gt;LEAR&lt;/span&gt;&lt;/div&gt;" style="shape=umlActor;verticalLabelPosition=bottom;verticalAlign=top;html=1;outlineConnect=0;" parent="1" vertex="1">
          <mxGeometry x="85" y="323.75" width="30" height="60" as="geometry" />
        </mxCell>
        <mxCell id="OcH-Gw6TVEVZWwgZwP5O-12" style="edgeStyle=orthogonalEdgeStyle;rounded=0;orthogonalLoop=1;jettySize=auto;html=1;exitX=1;exitY=0.25;exitDx=0;exitDy=0;entryX=0;entryY=0.5;entryDx=0;entryDy=0;" parent="1" source="OcH-Gw6TVEVZWwgZwP5O-8" target="OcH-Gw6TVEVZWwgZwP5O-11" edge="1">
          <mxGeometry relative="1" as="geometry">
            <Array as="points">
              <mxPoint x="290" y="700" />
              <mxPoint x="290" y="625" />
            </Array>
          </mxGeometry>
        </mxCell>
        <mxCell id="OcH-Gw6TVEVZWwgZwP5O-14" style="edgeStyle=orthogonalEdgeStyle;rounded=0;orthogonalLoop=1;jettySize=auto;html=1;exitX=1;exitY=0.5;exitDx=0;exitDy=0;" parent="1" source="OcH-Gw6TVEVZWwgZwP5O-8" target="OcH-Gw6TVEVZWwgZwP5O-10" edge="1">
          <mxGeometry relative="1" as="geometry" />
        </mxCell>
        <mxCell id="OcH-Gw6TVEVZWwgZwP5O-10" value="Control&lt;div&gt;Plane&lt;/div&gt;" style="whiteSpace=wrap;html=1;aspect=fixed;" parent="1" vertex="1">
          <mxGeometry x="300" y="680" width="80" height="80" as="geometry" />
        </mxCell>
        <mxCell id="OcH-Gw6TVEVZWwgZwP5O-11" value="Data Plane" style="whiteSpace=wrap;html=1;aspect=fixed;" parent="1" vertex="1">
          <mxGeometry x="300" y="585" width="80" height="80" as="geometry" />
        </mxCell>
        <mxCell id="v3vc5Tjy4B6Mg-112-fk-3" style="edgeStyle=orthogonalEdgeStyle;rounded=0;orthogonalLoop=1;jettySize=auto;html=1;exitX=0.348;exitY=-0.006;exitDx=0;exitDy=0;entryX=0.75;entryY=1;entryDx=0;entryDy=0;dashed=1;startArrow=classic;startFill=1;exitPerimeter=0;" parent="1" source="OcH-Gw6TVEVZWwgZwP5O-21" target="G7SNNJJ8i718TlqXlyuN-15" edge="1">
          <mxGeometry relative="1" as="geometry" />
        </mxCell>
        <mxCell id="Pzict6rE5WbOi0MzwCxy-8" style="edgeStyle=orthogonalEdgeStyle;rounded=0;orthogonalLoop=1;jettySize=auto;html=1;entryX=0.5;entryY=1;entryDx=0;entryDy=0;exitX=0;exitY=0.75;exitDx=0;exitDy=0;" parent="1" source="OcH-Gw6TVEVZWwgZwP5O-17" target="Pzict6rE5WbOi0MzwCxy-7" edge="1">
          <mxGeometry relative="1" as="geometry">
            <Array as="points">
              <mxPoint x="30" y="600" />
              <mxPoint x="30" y="780" />
              <mxPoint x="770" y="780" />
            </Array>
          </mxGeometry>
        </mxCell>
        <mxCell id="Pzict6rE5WbOi0MzwCxy-27" value="Register" style="edgeLabel;html=1;align=center;verticalAlign=middle;resizable=0;points=[];" parent="Pzict6rE5WbOi0MzwCxy-8" vertex="1" connectable="0">
          <mxGeometry x="0.0521" y="-3" relative="1" as="geometry">
            <mxPoint as="offset" />
          </mxGeometry>
        </mxCell>
        <mxCell id="OcH-Gw6TVEVZWwgZwP5O-21" value="Issuance&lt;div&gt;Server&lt;/div&gt;" style="rounded=0;whiteSpace=wrap;html=1;fillColor=#ffe6cc;strokeColor=#d79b00;" parent="1" vertex="1">
          <mxGeometry x="590" y="380" width="100" height="107.5" as="geometry" />
        </mxCell>
        <mxCell id="OcH-Gw6TVEVZWwgZwP5O-24" style="edgeStyle=orthogonalEdgeStyle;rounded=0;orthogonalLoop=1;jettySize=auto;html=1;exitX=0.5;exitY=1;exitDx=0;exitDy=0;entryX=1;entryY=0.25;entryDx=0;entryDy=0;startArrow=classic;startFill=1;" parent="1" source="OcH-Gw6TVEVZWwgZwP5O-21" target="OcH-Gw6TVEVZWwgZwP5O-17" edge="1">
          <mxGeometry relative="1" as="geometry" />
        </mxCell>
        <mxCell id="G7SNNJJ8i718TlqXlyuN-21" value="6. OID4VCI" style="edgeLabel;html=1;align=center;verticalAlign=middle;resizable=0;points=[];" parent="OcH-Gw6TVEVZWwgZwP5O-24" vertex="1" connectable="0">
          <mxGeometry x="-0.1319" y="1" relative="1" as="geometry">
            <mxPoint as="offset" />
          </mxGeometry>
        </mxCell>
        <mxCell id="G7SNNJJ8i718TlqXlyuN-18" style="edgeStyle=orthogonalEdgeStyle;rounded=0;orthogonalLoop=1;jettySize=auto;html=1;exitX=1;exitY=0.5;exitDx=0;exitDy=0;entryX=0.75;entryY=0;entryDx=0;entryDy=0;endArrow=none;startFill=1;startArrow=classic;" parent="1" source="G7SNNJJ8i718TlqXlyuN-14" target="OcH-Gw6TVEVZWwgZwP5O-21" edge="1">
          <mxGeometry relative="1" as="geometry">
            <Array as="points">
              <mxPoint x="665" y="160" />
            </Array>
          </mxGeometry>
        </mxCell>
        <mxCell id="Pzict6rE5WbOi0MzwCxy-21" value="7. Req. VC Info" style="edgeLabel;html=1;align=center;verticalAlign=middle;resizable=0;points=[];" parent="G7SNNJJ8i718TlqXlyuN-18" vertex="1" connectable="0">
          <mxGeometry x="0.0541" relative="1" as="geometry">
            <mxPoint x="25" y="98" as="offset" />
          </mxGeometry>
        </mxCell>
        <mxCell id="G7SNNJJ8i718TlqXlyuN-14" value="Claim&lt;div&gt;Provider&lt;/div&gt;" style="rounded=0;whiteSpace=wrap;html=1;fillColor=#f0a30a;strokeColor=#BD7000;fontColor=#000000;" parent="1" vertex="1">
          <mxGeometry x="387" y="110" width="100" height="100" as="geometry" />
        </mxCell>
        <mxCell id="G7SNNJJ8i718TlqXlyuN-22" style="edgeStyle=orthogonalEdgeStyle;rounded=0;orthogonalLoop=1;jettySize=auto;html=1;exitX=0.25;exitY=1;exitDx=0;exitDy=0;entryX=0.75;entryY=0;entryDx=0;entryDy=0;startArrow=classic;startFill=1;" parent="1" source="G7SNNJJ8i718TlqXlyuN-15" target="OcH-Gw6TVEVZWwgZwP5O-17" edge="1">
          <mxGeometry relative="1" as="geometry">
            <Array as="points">
              <mxPoint x="589" y="360" />
              <mxPoint x="540" y="360" />
              <mxPoint x="540" y="480" />
              <mxPoint x="110" y="480" />
            </Array>
          </mxGeometry>
        </mxCell>
        <mxCell id="G7SNNJJ8i718TlqXlyuN-25" value="Text" style="edgeLabel;html=1;align=center;verticalAlign=middle;resizable=0;points=[];" parent="G7SNNJJ8i718TlqXlyuN-22" vertex="1" connectable="0">
          <mxGeometry x="0.1697" y="3" relative="1" as="geometry">
            <mxPoint x="5" as="offset" />
          </mxGeometry>
        </mxCell>
        <mxCell id="G7SNNJJ8i718TlqXlyuN-26" value="6. OAuth" style="edgeLabel;html=1;align=center;verticalAlign=middle;resizable=0;points=[];" parent="G7SNNJJ8i718TlqXlyuN-22" vertex="1" connectable="0">
          <mxGeometry x="0.1365" y="4" relative="1" as="geometry">
            <mxPoint as="offset" />
          </mxGeometry>
        </mxCell>
        <mxCell id="Pzict6rE5WbOi0MzwCxy-26" style="edgeStyle=orthogonalEdgeStyle;rounded=0;orthogonalLoop=1;jettySize=auto;html=1;exitX=0;exitY=0.5;exitDx=0;exitDy=0;entryX=1;entryY=0.5;entryDx=0;entryDy=0;" parent="1" source="G7SNNJJ8i718TlqXlyuN-15" target="Pzict6rE5WbOi0MzwCxy-25" edge="1">
          <mxGeometry relative="1" as="geometry" />
        </mxCell>
        <mxCell id="G7SNNJJ8i718TlqXlyuN-15" value="AS/IdP" style="rounded=0;whiteSpace=wrap;html=1;fillColor=#fff2cc;strokeColor=#d6b656;" parent="1" vertex="1">
          <mxGeometry x="570" y="263.13" width="74" height="73.75" as="geometry" />
        </mxCell>
        <mxCell id="Pzict6rE5WbOi0MzwCxy-7" value="Membership&lt;div&gt;Signed&lt;/div&gt;&lt;div&gt;Registry&lt;/div&gt;" style="rounded=0;whiteSpace=wrap;html=1;fillColor=#ffe6cc;strokeColor=#d79b00;" parent="1" vertex="1">
          <mxGeometry x="710" y="376.25" width="120" height="110" as="geometry" />
        </mxCell>
        <mxCell id="Pzict6rE5WbOi0MzwCxy-16" style="edgeStyle=orthogonalEdgeStyle;rounded=0;orthogonalLoop=1;jettySize=auto;html=1;" parent="1" source="Pzict6rE5WbOi0MzwCxy-11" target="OcH-Gw6TVEVZWwgZwP5O-1" edge="1">
          <mxGeometry relative="1" as="geometry">
            <mxPoint x="105" y="130" as="sourcePoint" />
            <Array as="points" />
          </mxGeometry>
        </mxCell>
        <mxCell id="Pzict6rE5WbOi0MzwCxy-18" value="2. Validate" style="edgeLabel;html=1;align=center;verticalAlign=middle;resizable=0;points=[];" parent="Pzict6rE5WbOi0MzwCxy-16" vertex="1" connectable="0">
          <mxGeometry x="-0.2479" y="-2" relative="1" as="geometry">
            <mxPoint as="offset" />
          </mxGeometry>
        </mxCell>
        <mxCell id="Pzict6rE5WbOi0MzwCxy-11" value="Governance&lt;div&gt;Validator&lt;/div&gt;" style="shape=umlActor;verticalLabelPosition=bottom;verticalAlign=top;html=1;outlineConnect=0;" parent="1" vertex="1">
          <mxGeometry x="75" y="121.82" width="30" height="60" as="geometry" />
        </mxCell>
        <mxCell id="Pzict6rE5WbOi0MzwCxy-30" style="edgeStyle=orthogonalEdgeStyle;rounded=0;orthogonalLoop=1;jettySize=auto;html=1;exitX=0.5;exitY=0;exitDx=0;exitDy=0;entryX=0.5;entryY=1;entryDx=0;entryDy=0;" parent="1" source="Pzict6rE5WbOi0MzwCxy-25" target="G7SNNJJ8i718TlqXlyuN-14" edge="1">
          <mxGeometry relative="1" as="geometry" />
        </mxCell>
        <mxCell id="Pzict6rE5WbOi0MzwCxy-25" value="&lt;div&gt;Keycloack&lt;/div&gt;" style="rounded=0;whiteSpace=wrap;html=1;fillColor=#f0a30a;strokeColor=#BD7000;fontColor=#000000;" parent="1" vertex="1">
          <mxGeometry x="400" y="264.07" width="74" height="73.75" as="geometry" />
        </mxCell>
        <mxCell id="Pzict6rE5WbOi0MzwCxy-32" value="Paticipant&#39;s&lt;div&gt;Connector&lt;/div&gt;" style="rounded=0;whiteSpace=wrap;html=1;" parent="1" vertex="1">
          <mxGeometry x="270" y="518.1800000000001" width="120" height="31.82" as="geometry" />
        </mxCell>
        <mxCell id="Pzict6rE5WbOi0MzwCxy-33" value="TEMS&#39; Governance" style="rounded=0;whiteSpace=wrap;html=1;" parent="1" vertex="1">
          <mxGeometry x="750" y="90.00000000000006" width="120" height="31.82" as="geometry" />
        </mxCell>
        <mxCell id="Pzict6rE5WbOi0MzwCxy-34" value="LI Wallet" style="rounded=0;whiteSpace=wrap;html=1;" parent="1" vertex="1">
          <mxGeometry x="720" y="240.00000000000006" width="120" height="31.82" as="geometry" />
        </mxCell>
        <mxCell id="Pzict6rE5WbOi0MzwCxy-35" value="TEMS&#39; Governance&lt;div&gt;Infrastructure&lt;/div&gt;" style="rounded=0;whiteSpace=wrap;html=1;" parent="1" vertex="1">
          <mxGeometry x="230" y="100.00000000000006" width="120" height="31.82" as="geometry" />
        </mxCell>
      </root>
    </mxGraphModel>
  </diagram>
</mxfile>
